# xmcd CD database file
#
# Track frame offsets:
#	150
#	10898
#	29337
#	42069
#	57721
#	75318
#	89030
#	103724
#	119268
#	132963
#	152434
#	166011
#	179507
#	197997
#	211332
#	222967
#
# Disc length: 3115 seconds
#
# Revision: 0
# Processed by: cddbd v1.5.2PL0 Copyright (c) Steve Scherf et al.
# Submitted via: CDex 1.51
#
DISCID=d80c2910
DTITLE=Heino - An Der Saale Hellem Strande
DYEAR=1986
DGENRE=Deutsch
TTITLE0=An Der Saale Hellem Strande
TTITLE1=Blau Blüht Der Enzian
TTITLE2=Caramba Cacaracho Ein Whisky
TTITLE3=Casablanca Träume Die Niemals Vergeh´n
TTITLE4=Der Berg Der Versuchung
TTITLE5=Griechischer Wein
TTITLE6=In Einer Bar In Mexico
TTITLE7=La Paloma
TTITLE8=Lieder der Berge
TTITLE9=Mohikana Shalali
TTITLE10=San Bernardino
TTITLE11=Schneewalzer
TTITLE12=Tampico
TTITLE13=Bergvagabunden
TTITLE14=Kehr´ Ich Einst Zur Heimat Wieder
TTITLE15=Wir Lieben Die Stürme
EXTD=YEAR: 1986
EXTT0=
EXTT1=
EXTT2=
EXTT3=
EXTT4=
EXTT5=
EXTT6=
EXTT7=
EXTT8=
EXTT9=
EXTT10=
EXTT11=
EXTT12=
EXTT13=
EXTT14=
EXTT15=
PLAYORDER=
